<svg width="144" height="34" viewBox="0 0 144 34" fill="none" xmlns="http://www.w3.org/2000/svg">
<path d="M45.016 8.248V25H41.656V8.248H45.016ZM59.9997 13.288C59.6157 12.584 59.0877 12.048 58.4157 11.68C57.7437 11.312 56.9597 11.128 56.0637 11.128C55.0717 11.128 54.1917 11.352 53.4237 11.8C52.6557 12.248 52.0557 12.888 51.6237 13.72C51.1917 14.552 50.9757 15.512 50.9757 16.6C50.9757 17.72 51.1917 18.696 51.6237 19.528C52.0717 20.36 52.6877 21 53.4717 21.448C54.2557 21.896 55.1677 22.12 56.2077 22.12C57.4877 22.12 58.5357 21.784 59.3517 21.112C60.1677 20.424 60.7037 19.472 60.9597 18.256H55.1997V15.688H64.2717V18.616C64.0477 19.784 63.5677 20.864 62.8317 21.856C62.0957 22.848 61.1437 23.648 59.9757 24.256C58.8237 24.848 57.5277 25.144 56.0877 25.144C54.4717 25.144 53.0077 24.784 51.6957 24.064C50.3997 23.328 49.3757 22.312 48.6237 21.016C47.8877 19.72 47.5197 18.248 47.5197 16.6C47.5197 14.952 47.8877 13.48 48.6237 12.184C49.3757 10.872 50.3997 9.856 51.6957 9.136C53.0077 8.4 54.4637 8.032 56.0637 8.032C57.9517 8.032 59.5917 8.496 60.9837 9.424C62.3757 10.336 63.3357 11.624 63.8637 13.288H59.9997ZM81.0856 25H77.7256L70.1176 13.504V25H66.7576V8.224H70.1176L77.7256 19.744V8.224H81.0856V25ZM94.678 21.808H88.006L86.902 25H83.374L89.398 8.224H93.31L99.334 25H95.782L94.678 21.808ZM93.766 19.12L91.342 12.112L88.918 19.12H93.766ZM100.77 16.6C100.77 14.952 101.138 13.48 101.874 12.184C102.626 10.872 103.642 9.856 104.922 9.136C106.218 8.4 107.666 8.032 109.266 8.032C111.138 8.032 112.778 8.512 114.186 9.472C115.594 10.432 116.578 11.76 117.138 13.456H113.274C112.89 12.656 112.346 12.056 111.642 11.656C110.954 11.256 110.154 11.056 109.242 11.056C108.266 11.056 107.394 11.288 106.626 11.752C105.874 12.2 105.282 12.84 104.85 13.672C104.434 14.504 104.226 15.48 104.226 16.6C104.226 17.704 104.434 18.68 104.85 19.528C105.282 20.36 105.874 21.008 106.626 21.472C107.394 21.92 108.266 22.144 109.242 22.144C110.154 22.144 110.954 21.944 111.642 21.544C112.346 21.128 112.89 20.52 113.274 19.72H117.138C116.578 21.432 115.594 22.768 114.186 23.728C112.794 24.672 111.154 25.144 109.266 25.144C107.666 25.144 106.218 24.784 104.922 24.064C103.642 23.328 102.626 22.312 101.874 21.016C101.138 19.72 100.77 18.248 100.77 16.6ZM123.368 8.248V25H120.008V8.248H123.368ZM134.463 25.168C132.895 25.168 131.455 24.8 130.143 24.064C128.831 23.328 127.791 22.312 127.023 21.016C126.255 19.704 125.871 18.224 125.871 16.576C125.871 14.944 126.255 13.48 127.023 12.184C127.791 10.872 128.831 9.848 130.143 9.112C131.455 8.376 132.895 8.008 134.463 8.008C136.047 8.008 137.487 8.376 138.783 9.112C140.095 9.848 141.127 10.872 141.879 12.184C142.647 13.48 143.031 14.944 143.031 16.576C143.031 18.224 142.647 19.704 141.879 21.016C141.127 22.312 140.095 23.328 138.783 24.064C137.471 24.8 136.031 25.168 134.463 25.168ZM134.463 22.168C135.471 22.168 136.359 21.944 137.127 21.496C137.895 21.032 138.495 20.376 138.927 19.528C139.359 18.68 139.575 17.696 139.575 16.576C139.575 15.456 139.359 14.48 138.927 13.648C138.495 12.8 137.895 12.152 137.127 11.704C136.359 11.256 135.471 11.032 134.463 11.032C133.455 11.032 132.559 11.256 131.775 11.704C131.007 12.152 130.407 12.8 129.975 13.648C129.543 14.48 129.327 15.456 129.327 16.576C129.327 17.696 129.543 18.68 129.975 19.528C130.407 20.376 131.007 21.032 131.775 21.496C132.559 21.944 133.455 22.168 134.463 22.168Z" fill="white"/>
<path d="M34.0013 17.0001C34.0013 26.3889 26.3901 34.0001 17.0013 34.0001C13.0609 34.0001 9.43369 32.6595 6.55078 30.4095L24.7833 12.177C25.6535 13.5776 26.1551 15.2294 26.1551 17.0001C26.1551 21.1928 23.3363 24.7271 19.4905 25.8114C18.9167 25.0654 18.0151 24.5847 17.0013 24.5847C15.2679 24.5847 13.8628 25.9898 13.8628 27.7231C13.8628 29.4565 15.2679 30.8616 17.0013 30.8616C18.2989 30.8616 19.4126 30.0741 19.8905 28.9509C25.2853 27.6513 29.2936 22.7938 29.2936 17.0001C29.2936 14.3619 28.4612 11.9162 27.0465 9.9138L30.4107 6.54956C32.6607 9.43247 34.0013 13.0597 34.0013 17.0001Z" fill="#2EB4FF"/>
<path d="M6.95477 24.0862L3.59053 27.4505C1.34058 24.5676 0 20.9403 0 17C0 7.61116 7.61116 0 17 0C20.9403 0 24.5676 1.34058 27.4505 3.59053L9.218 21.823C8.34783 20.4225 7.84615 18.7708 7.84615 17C7.84615 12.8073 10.6649 9.27294 14.5108 8.18866C15.0846 8.93463 15.9861 9.41538 17 9.41538C18.7333 9.41538 20.1385 8.01024 20.1385 6.27692C20.1385 4.54359 18.7333 3.13845 17 3.13845C15.7024 3.13845 14.5887 3.92597 14.1108 5.04914C8.71598 6.34871 4.70768 11.2063 4.70768 17C4.70768 19.6379 5.54001 22.0838 6.95477 24.0862Z" fill="#F04148"/>
<circle cx="16.9991" cy="6.27693" r="1.30769" fill="#2EB4FF"/>
<circle cx="16.9991" cy="27.7232" r="1.30769" fill="#F04148"/>
</svg>
