<?xml version="1.0" ?><svg height="64" id="svg8" version="1.1" viewBox="0 0 16.933333 16.933334" width="64" xmlns="http://www.w3.org/2000/svg" xmlns:cc="http://creativecommons.org/ns#" xmlns:dc="http://purl.org/dc/elements/1.1/" xmlns:inkscape="http://www.inkscape.org/namespaces/inkscape" xmlns:rdf="http://www.w3.org/1999/02/22-rdf-syntax-ns#" xmlns:sodipodi="http://sodipodi.sourceforge.net/DTD/sodipodi-0.dtd" xmlns:svg="http://www.w3.org/2000/svg"><defs id="defs2"/><g id="layer1"><path d="m 14.541001,0.52931911 c -0.07323,0.0031 -0.1419,0.03431 -0.189649,0.08992 L 12.763357,2.4728682 c -0.145526,0.17181 -0.02362,0.43531 0.201536,0.43563 h 0.792705 v 0.5291599 c 0.0077,0.34504 0.521501,0.34504 0.529159,0 V 2.6444282 c 5.56e-4,-0.14612 -0.117428,-0.26503 -0.263546,-0.26561 H 13.54056 l 1.01181,-1.1792501 1.011811,1.1792501 h -0.482135 c -0.147127,-8.493e-4 -0.266692,0.11848 -0.26613,0.26561 v 0.52969 c 0,0.3531199 0.529676,0.3531199 0.529676,0 v -0.26562 h 0.792706 c 0.22516,-3.202e-4 0.347061,-0.26382 0.201535,-0.43563 L 14.751838,0.61923912 c -0.05258,-0.0612 -0.130209,-0.093 -0.210837,-0.08992 z M 4.4978303,1.0584881 c -2.1959502,0 -3.96869421,1.7799901 -3.96869421,3.9687301 0,2.18874 1.77171001,3.9687403 3.96869421,3.9687403 2.1969839,0 3.968694,-1.7800003 3.968694,-3.9687403 0,-2.18874 -1.7727441,-3.9687301 -3.968694,-3.9687301 z m 0,1.5874901 c 1.3110089,0 2.3807,1.06298 2.3807,2.38124 0,1.31826 -1.071226,2.3807301 -2.3807,2.3807301 -1.3094732,0 -2.3807002,-1.0624701 -2.3807002,-2.3807301 0,-1.31826 1.0696911,-2.38124 2.3807002,-2.38124 z m 0,0.52865 c -0.1323231,0 -0.2645801,0.0881 -0.2645801,0.2645801 H 3.9681541 c -0.446526,0 -0.7932219,0.3596299 -0.7932219,0.7947798 v 0.2635501 c 0,0.4424 0.3580709,0.7932301 0.7932219,0.7932301 H 4.2332502 V 6.0855484 H 3.9681541 c -0.142893,0 -0.263546,-0.11445 -0.263546,-0.2656102 0,-0.35287 -0.529159,-0.35287 -0.529159,0 0,0.44445 0.357554,0.79478 0.792705,0.79478 h 0.2650961 c 5.556e-4,0.3521001 0.5285919,0.3521001 0.52916,0 h 0.2645791 c 0.435151,0 0.7937389,-0.35135 0.7937389,-0.79478 V 5.5563883 c 0,-0.4403302 -0.3585829,-0.7953002 -0.7937389,-0.7953002 H 4.7624102 V 3.9683782 h 0.2645791 c 0.1439199,0 0.2635459,0.1144601 0.2635459,0.2656099 0,0.35287 0.5291601,0.35287 0.5291601,0 0,-0.4351499 -0.3513482,-0.7947798 -0.792706,-0.7947798 H 4.7624102 c 0,-0.1764302 -0.132257,-0.2645801 -0.2645799,-0.2645801 z M 8.7316204,6.3465183 V 6.8632784 C 8.5658933,7.0370882 8.4660073,7.2832282 8.4660073,7.5438582 c 0,0.4915802 0.3551171,0.93429 0.8381794,0.9343001 0.0308,0 0.06013,-0.00101 0.09043,-0.005 0.172419,0.48617 0.499702,0.8989102 0.9234453,1.1808002 v 0.1333288 h -5.3e-4 v 0.2527007 l -0.07028,0.0326 -1.5189978,0.696559 c -0.3045942,0.14687 -0.6061242,0.28127 -0.8632341,0.48314 -0.06487,0.0509 -0.1226399,0.10714 -0.177247,0.16537 -0.104757,0.0348 -0.2001009,0.0886 -0.2800829,0.16123 -0.139614,-0.12577 -0.3231552,-0.20154 -0.5291471,-0.20154 -0.4444561,0 -0.7927049,0.35756 -0.7927049,0.79272 v 0.0444 c -0.0831,-0.0292 -0.1714291,-0.0444 -0.2656131,-0.0444 -0.4465241,0 -0.792706,0.35807 -0.792706,0.79323 v 0.52916 c 0,0.57326 0.1392471,1.12428 0.2733649,1.5937 0.1341181,0.46942 0.2557952,0.82871 0.2557952,1.05264 0,0.35286 0.529159,0.35493 0.529159,0 0,-0.31143 -0.1449702,-0.74072 -0.275432,-1.19734 -0.1304571,-0.45666 -0.253723,-0.96397 -0.253723,-1.44904 v -0.52917 c 0,-0.15115 0.1206598,-0.26561 0.2635459,-0.26561 0.1428861,0 0.2656131,0.11446 0.2656131,0.26561 v 0.52917 c 0,0.35286 0.52916,0.35286 0.52916,0 v -1.3224 c 0,-0.15115 0.1216938,-0.26355 0.2635459,-0.26355 0.1418511,0 0.2661291,0.1124 0.2661291,0.26355 l -0.00101,0.79478 c 0,0.35476 0.52916,0.34644 0.52916,0 l -0.00101,-0.79478 c -2.022e-4,-0.15115 0.1144579,-0.26355 0.265611,-0.26355 0.1511548,0 0.2635459,0.1124 0.2635459,0.26355 v 0.79323 c 0,0.35287 0.529159,0.35287 0.529159,0 v -0.52969 c 0,-0.15115 0.121177,-0.26355 0.2661296,-0.26355 0.144953,0 0.264063,0.1124 0.264063,0.26355 v 1.58801 c 0,0.33808 -0.11803,0.70764 -0.24856,1.0666 -0.13053,0.35896 -0.2816326,0.72054 -0.2816326,1.05058 0,0.17925 0.1368006,0.26641 0.2712976,0.26355 h 5.8868943 c 0.41087,0 0.81013,-0.15956 1.092941,-0.41083 0.29526,-0.26232 0.475419,-0.64311 0.409272,-1.05936 l -0.445503,-2.806499 c -0.06094,-0.38345 -0.251995,-0.65733 -0.527092,-0.87333 -0.257109,-0.20187 -0.558639,-0.33627 -0.863484,-0.48314 l -1.519247,-0.69656 -0.07028,-0.0326 V 9.7873073 h -5.29e-4 V 9.6560476 c 0.423754,-0.2818702 0.751523,-0.6925702 0.923962,-1.1839001 0.0304,0.004 0.06118,0.006 0.09198,0.006 0.483063,0 0.835606,-0.4427101 0.835596,-0.9343099 0,-0.26035 -0.09868,-0.5062802 -0.263546,-0.6800601 v -0.51727 c 0,-1.60816 -1.301902,-2.9088601 -2.909872,-2.9088548 -1.599188,5.4e-6 -2.9109026,1.2883056 -2.9109026,2.9088656 z M 3.9681541,3.9683782 H 4.2332502 V 4.7610881 H 3.9681541 c -0.1511599,0 -0.2640629,-0.1185899 -0.2640629,-0.2635499 V 4.2339881 c 0,-0.1511398 0.119109,-0.2656099 0.2640629,-0.2656099 z M 14.815916,4.2303609 v 0.26562 c 0,0.35286 0.529676,0.35286 0.529676,0 V 4.2303683 c 0.0017,-0.14924 -0.120519,-0.26426 -0.269747,-0.2614837 -0.145406,0.003 -0.261585,0.1160563 -0.259929,0.2614763 z M 4.7624102,5.2907601 h 0.2645791 c 0.1511559,0 0.2640629,0.12171 0.2640629,0.26562 V 5.81993 c 0,0.1511501 -0.119103,0.2656102 -0.2640629,0.2656102 H 4.7624102 Z m 8.0593408,1.46244 c 0.184498,0.1845299 0.420363,0.3102499 0.672301,0.36225 v 0.5710201 c 0,1.02026 -0.82876,1.8365801 -1.852057,1.8365801 -1.031556,0 -1.8515393,-0.8163201 -1.8515393,-1.8365801 V 7.1361284 c 1.0510033,-0.0436 2.0417383,-0.35569 2.7258923,-0.8619643 0.0659,0.1782061 0.168645,0.3422559 0.305403,0.479036 z m 1.20146,0.3927401 c 0.135288,0.0265 0.262405,0.1844 0.26458,0.3979098 -0.0031,0.2308 -0.139745,0.3840001 -0.280083,0.40255 0.009,-0.0854 0.0155,-0.1720498 0.0155,-0.2599298 z M 9.2752527,7.9464093 c -0.140351,-0.0186 -0.280083,-0.1717501 -0.280083,-0.4025501 0,-0.2168998 0.129628,-0.3711498 0.265095,-0.3973899 -2e-6,0.2798199 -0.0061,0.6582702 0.014988,0.79994 z M 7.4082063,8.9964794 c -0.15416,0.003 -0.2645799,0.11693 -0.2645799,0.2635401 v 0.5291698 c 0,0.17633 0.1323308,0.2648697 0.2645799,0.2650997 0.132249,-2.3e-4 0.2645791,-0.0888 0.2645791,-0.2650997 V 9.2600195 c 0,-0.1466101 -0.1104191,-0.2606701 -0.2645791,-0.2635401 z M 2.4473381,9.3499184 0.59373109,11.465028 c -0.144563,0.16422 -0.02905,0.43977 0.198951,0.43925 H 1.5879711 v 1.3224 c 0,0.35286 0.529159,0.35286 0.529159,0 v -1.58595 c 5.65e-4,-0.14693 -0.118681,-0.26618 -0.265613,-0.26562 H 1.3771341 L 2.6462902,9.9261083 3.9138952,11.375108 H 3.439512 c -0.1461687,5.29e-4 -0.2641078,0.11945 -0.2635469,0.26562 l -10e-4,1.3224 c 0,0.35357 0.52916,0.35054 0.52916,0 l -0.00101,-1.05885 h 0.794771 c 0.2279981,5.29e-4 0.350121,-0.26811 0.1994681,-0.43925 L 2.8458241,9.3499183 c -0.05345,-0.061 -0.131924,-0.0942 -0.212937,-0.0899 -0.071483,0.004 -0.13839,0.0361 -0.185549,0.0899 z m 3.5299671,0.06565 c -0.239182,-0.00201 -0.3547639,0.28838 -0.1896491,0.45217 l 0.3751651,0.3730996 c 0.2610551,0.24277 0.6165509,-0.12301 0.375166,-0.3730996 l -0.375166,-0.37517 c -0.04981,-0.0512 -0.114079,-0.077 -0.185516,-0.077 z m 2.8618011,0 c -0.07144,0 -0.1357069,0.025799 -0.1855161,0.077 l -0.3751659,0.37517 C 8.0370394,10.117828 8.3925362,10.483608 8.6535902,10.240838 L 9.0287557,9.8677383 c 0.165116,-0.16379 0.04953,-0.45402 -0.1896494,-0.4521699 z m 3.5961107,0.50178 v 0.1545096 0.15709 l -0.661966,0.88057 h -0.263546 l -0.661966,-0.88057 V 9.9183783 c 0.248474,0.0875 0.515888,0.1338397 0.794256,0.1338397 0.277926,0 0.545085,-0.0477 0.793222,-0.1348696 z m -1.995715,0.6490496 0.589102,0.7829 -0.423224,0.42426 -0.7498133,-0.93948 z m 2.403953,0 0.583935,0.26768 -0.749814,0.93948 -0.423224,-0.42426 z m -3.4855243,0.49558 1.0190433,1.27227 c 0.09851,0.12239 0.28134,0.13251 0.392735,0.0217 l 0.07493,-0.0749 0.234608,0.23047 -0.516757,3.361541 H 9.3047037 c 0.04545,-0.170651 0.119787,-0.368821 0.205153,-0.60358 0.13405,-0.368641 0.279566,-0.792311 0.279566,-1.24798 v -1.588011 c 0,-0.43516 -0.348766,-0.79271 -0.793222,-0.79271 -0.143244,0 -0.2750224,0.0358 -0.3901524,0.10077 -0.05302,-0.0841 -0.124905,-0.15254 -0.2046351,-0.21084 0.3365189,-0.190933 0.5925066,-0.302019 0.9565175,-0.46873 z m 4.5670963,0 0.403071,0.18448 c 6.09e-4,2.91e-4 8.74e-4,-2.91e-4 0.0016,0 l 0.0021,0.002 c 0.306129,0.147451 0.573829,0.274951 0.758083,0.419611 0.17194,0.134999 0.291743,0.28924 0.331758,0.541049 l 0.445444,2.806541 c 0.0348,0.219 -0.06059,0.42198 -0.238225,0.57981 -0.19331,0.17174 -0.464141,0.2775 -0.740512,0.2775 h -2.167803 l -0.516757,-3.361541 0.234607,-0.230469 0.07493,0.0749 c 0.111394,0.110791 0.294228,0.100681 0.392735,-0.0217 z m -2.438576,0.5767 h 0.310054 l 0.268197,0.2682 -0.422191,0.41548 -0.001,-10e-4 -5.29e-4,-5.29e-4 v 10e-4 l -5.3e-4,5.3e-4 -0.42219,-0.41548 z m 0.0248,1.28467 c 0.04071,0.0229 0.08497,0.0311 0.129705,0.031 0.04489,5e-5 0.08992,-0.008 0.13074,-0.031 l 0.398936,2.94969 h -1.058318 z m -8.0763946,0.83509 c -0.145406,0.003 -0.261584,0.1171 -0.259929,0.26252 v 0.26561 c 0,0.35287 0.529159,0.35287 0.529159,0 v -0.26561 c 0.0017,-0.14925 -0.1200023,-0.2653 -0.26923,-0.26252 z m -1.8468901,0.52658 v 0.26562 c 0,0.35286 0.529159,0.35286 0.529159,0 v -0.26562 c 0.0017,-0.14924 -0.1205142,-0.26478 -0.2697446,-0.26199 -0.1454074,0.003 -0.2610694,0.11657 -0.2594144,0.26199 z m 0.793222,0.79944 v 0.26561 c 0,0.35287 0.5291591,0.35287 0.5291591,0 v -0.26561 c 0.0017,-0.14925 -0.1199981,-0.2653 -0.269228,-0.26252 -0.1454071,0.003 -0.2615861,0.11709 -0.2599311,0.26252 z" id="path2047" style="color:#000000;display:inline;opacity:1;fill:#000000;stroke-width:1;stroke-linejoin:round"/></g></svg>