<?xml version="1.0" ?><svg fill="none" height="24" viewBox="0 0 24 24" width="24" xmlns="http://www.w3.org/2000/svg"><g id="Vespa"><path clip-rule="evenodd" d="M12 1.75C10.7574 1.75 9.75 2.75736 9.75 4C9.75 5.24264 10.7574 6.25 12 6.25C13.2426 6.25 14.25 5.24264 14.25 4C14.25 2.75736 13.2426 1.75 12 1.75ZM8.25 4C8.25 1.92893 9.92893 0.25 12 0.25C14.0711 0.25 15.75 1.92893 15.75 4C15.75 6.07107 14.0711 7.75 12 7.75C9.92893 7.75 8.25 6.07107 8.25 4Z" fill="black" fill-rule="evenodd" id="Ellipse 15 (Stroke)"/><path clip-rule="evenodd" d="M14.25 3C14.25 2.58579 14.5858 2.25 15 2.25H19C19.4142 2.25 19.75 2.58579 19.75 3V5C19.75 5.41421 19.4142 5.75 19 5.75H15C14.5858 5.75 14.25 5.41421 14.25 5V3ZM15.75 3.75V4.25H18.25V3.75H15.75Z" fill="black" fill-rule="evenodd" id="Rectangle 28 (Stroke)"/><path clip-rule="evenodd" d="M9.75 3C9.75 2.58579 9.41421 2.25 9 2.25H5C4.58579 2.25 4.25 2.58579 4.25 3V5C4.25 5.41421 4.58579 5.75 5 5.75H9C9.41421 5.75 9.75 5.41421 9.75 5V3ZM8.25 3.75V4.25H5.75V3.75H8.25Z" fill="black" fill-rule="evenodd" id="Rectangle 29 (Stroke)"/><path clip-rule="evenodd" d="M18.25 4C18.25 3.58579 18.5858 3.25 19 3.25H23C23.4142 3.25 23.75 3.58579 23.75 4C23.75 4.41421 23.4142 4.75 23 4.75H19C18.5858 4.75 18.25 4.41421 18.25 4Z" fill="black" fill-rule="evenodd" id="Vector 32 (Stroke)"/><path clip-rule="evenodd" d="M5.75 4C5.75 3.58579 5.41421 3.25 5 3.25H1C0.585786 3.25 0.25 3.58579 0.25 4C0.25 4.41421 0.585786 4.75 1 4.75H5C5.41421 4.75 5.75 4.41421 5.75 4Z" fill="black" fill-rule="evenodd" id="Vector 33 (Stroke)"/><path clip-rule="evenodd" d="M5.25 11C5.25 8.37665 7.37665 6.25 10 6.25H14C16.6234 6.25 18.75 8.37665 18.75 11V19C18.75 19.9665 17.9665 20.75 17 20.75H14C13.5858 20.75 13.25 20.4142 13.25 20C13.25 19.5858 13.5858 19.25 14 19.25H17C17.1381 19.25 17.25 19.1381 17.25 19V11C17.25 9.20507 15.7949 7.75 14 7.75H10C8.20507 7.75 6.75 9.20507 6.75 11V19C6.75 19.1381 6.86193 19.25 7 19.25H10C10.4142 19.25 10.75 19.5858 10.75 20C10.75 20.4142 10.4142 20.75 10 20.75H7C6.0335 20.75 5.25 19.9665 5.25 19V11Z" fill="black" fill-rule="evenodd" id="Rectangle 30 (Stroke)"/><path clip-rule="evenodd" d="M9.25 18C9.25 16.4812 10.4812 15.25 12 15.25C13.5188 15.25 14.75 16.4812 14.75 18V21C14.75 22.5188 13.5188 23.75 12 23.75C10.4812 23.75 9.25 22.5188 9.25 21V18ZM12 16.75C11.3096 16.75 10.75 17.3096 10.75 18V21C10.75 21.6904 11.3096 22.25 12 22.25C12.6904 22.25 13.25 21.6904 13.25 21V18C13.25 17.3096 12.6904 16.75 12 16.75Z" fill="black" fill-rule="evenodd" id="Rectangle 31 (Stroke)"/></g></svg>